<?xml version="1.0" encoding="utf-8"?>
<!-- Generator: Adobe Illustrator 18.0.0, SVG Export Plug-In . SVG Version: 6.00 Build 0)  -->
<!DOCTYPE svg PUBLIC "-//W3C//DTD SVG 1.1//EN" "http://www.w3.org/Graphics/SVG/1.1/DTD/svg11.dtd">
<svg version="1.1" id="Capa_1" xmlns="http://www.w3.org/2000/svg" xmlns:xlink="http://www.w3.org/1999/xlink" x="0px" y="0px"
	 viewBox="0 0 178.3 180" enable-background="new 0 0 178.3 180" xml:space="preserve">
<path fill="#FFFFFF" d="M89.4,176.5c-47.8,0-86.7-38.9-86.7-86.7S41.7,3.2,89.4,3.2s86.7,38.9,86.7,86.7S137.2,176.5,89.4,176.5z
	 M138.2,120.7l-27.7-69.4h-1.2l-7.5,18.5l-21.9,53.7c-0.5,1.3-1,2.5-1.5,3.6c-3.1,1.1-6.5,1.6-10,1.6c-6.8,0-12.3-1.8-16.6-5.5
	c-4.3-3.7-7.4-9.1-9.4-16.3c-2-7.2-3-15.1-3-23.9c0-8.8,1.4-16.9,4.1-24.2c2.1-5.6,5.5-10.2,10.2-13.8c4.6-3.5,9.7-5.2,15.2-5.2
	c6.7,0,12.6,2.4,17.8,7.1c5.2,4.7,8.8,11.5,10.7,20.2h2.6V33.4h-2.6c-0.4,2.4-1,4.2-2,5.3c-1,1.1-2.3,1.7-3.6,1.7
	c-1.1,0-3.6-0.9-7.7-2.6c-6.9-3-13.5-4.5-19.8-4.5c-8.4,0-16.4,2.3-23.9,6.9c-7.5,4.6-13.5,11.1-17.9,19.5
	C18,68,15.8,76.9,15.8,86.2c0,8.8,2,17.1,6,24.9c4,7.8,9.7,13.8,17,18c7.4,4.2,15.8,6.3,25.2,6.3c3.9,0,7.5-0.4,10.8-1.1
	c-0.7,1.2-1.3,2.1-1.9,2.8c-1.9,2.2-4.3,3.6-7.2,4v2.5h27.3v-2.5c-4.3-0.4-7-0.9-8.1-1.6c-1.8-1.2-2.8-3-2.8-5.6
	c0-0.6,0.1-1.3,0.2-2.1c0.2-0.1,0.4-0.2,0.6-0.3c5.3-2.6,10.6-6.7,15.5-12.4v-1.3h17.9l4.3,11.3c1.1,2.9,1.7,4.6,1.8,5
	c0.2,0.8,0.4,1.7,0.4,2.5c0,1.3-0.5,2.4-1.4,3c-1.2,1-3.5,1.5-6.7,1.5h-1.6v2.5h39.7v-2.5c-2.5-0.2-4.5-1-5.8-2.4
	c-1.6-1.6-3.6-5.2-5.9-10.7L138.2,120.7z M84.9,123.9l2.4-6.1h5C89.7,120.4,87.3,122.4,84.9,123.9z M89.4,112.9l12.4-30.6l0.2-0.5
	l12.2,31.1H89.4z"/>
</svg>
